<svg width="32" height="32" viewBox="0 0 32 32" fill="none" xmlns="http://www.w3.org/2000/svg">
<circle cx="16" cy="16" r="15.5" stroke="#D9E3EB"/>
<g clip-path="url(#clip0)">
<path d="M16 6.41666C10.475 6.41666 6 10.8167 6 16.2433C6 20.5858 8.865 24.2683 12.8375 25.5667C13.3375 25.6592 13.5208 25.355 13.5208 25.0942C13.5208 24.8608 13.5125 24.2425 13.5083 23.4233C10.7267 24.0158 10.14 22.105 10.14 22.105C9.685 20.9708 9.0275 20.6675 9.0275 20.6675C8.12167 20.0583 9.0975 20.0708 9.0975 20.0708C10.1017 20.1392 10.6292 21.0833 10.6292 21.0833C11.5208 22.5858 12.97 22.1517 13.5417 21.9008C13.6317 21.265 13.8892 20.8325 14.175 20.5867C11.9542 20.3408 9.62 19.4958 9.62 15.7308C9.62 14.6583 10.0075 13.7817 10.6492 13.0942C10.5367 12.8458 10.1992 11.8467 10.7367 10.4933C10.7367 10.4933 11.5742 10.23 13.4867 11.5008C14.2867 11.2825 15.1367 11.1742 15.9867 11.1692C16.8367 11.1742 17.6867 11.2825 18.4867 11.5008C20.3867 10.23 21.2242 10.4933 21.2242 10.4933C21.7617 11.8467 21.4242 12.8458 21.3242 13.0942C21.9617 13.7817 22.3492 14.6583 22.3492 15.7308C22.3492 19.5058 20.0117 20.3367 17.7867 20.5783C18.1367 20.8733 18.4617 21.4758 18.4617 22.3967C18.4617 23.7117 18.4492 24.7683 18.4492 25.0875C18.4492 25.345 18.6242 25.6525 19.1367 25.5542C23.1375 24.2642 26 20.5792 26 16.2433C26 10.8167 21.5225 6.41666 16 6.41666Z" fill="black"/>
</g>
<defs>
<clipPath id="clip0">
<rect width="20" height="20" fill="white" transform="translate(6 6)"/>
</clipPath>
</defs>
</svg>
