<svg width="32" height="32" viewBox="0 0 32 32" fill="none" xmlns="http://www.w3.org/2000/svg">
<circle cx="16" cy="16" r="15.5" stroke="#D9E3EB"/>
<path d="M16 26C21.5228 26 26 21.5228 26 16C26 10.4772 21.5228 6 16 6C10.4772 6 6 10.4772 6 16C6 21.5228 10.4772 26 16 26Z" fill="#039BE5"/>
<path d="M10.5761 15.7833L20.2177 12.0658C20.6652 11.9042 21.0561 12.175 20.9111 12.8517L20.9119 12.8508L19.2702 20.585C19.1486 21.1333 18.8227 21.2667 18.3669 21.0083L15.8669 19.1658L14.6611 20.3275C14.5277 20.4608 14.4152 20.5733 14.1569 20.5733L14.3344 18.0292L18.9677 13.8433C19.1694 13.6658 18.9227 13.5658 18.6569 13.7425L12.9311 17.3475L10.4627 16.5775C9.92689 16.4075 9.91522 16.0417 10.5761 15.7833Z" fill="white"/>
</svg>
