<svg width="32" height="32" viewBox="0 0 32 32" fill="none" xmlns="http://www.w3.org/2000/svg">
<circle cx="16" cy="16" r="15.5" stroke="#D9E3EB"/>
<path d="M16 26C21.5228 26 26 21.5228 26 16C26 10.4772 21.5228 6 16 6C10.4772 6 6 10.4772 6 16C6 21.5228 10.4772 26 16 26Z" fill="#324A5E"/>
<path d="M9.16455 12.9307V20.9069C9.16455 20.9703 9.21604 21.0178 9.27544 21.0178H22.721C22.7844 21.0178 22.8319 20.9663 22.8319 20.9069V12.9307H9.16455Z" fill="white"/>
<path d="M22.8358 13.0376V11.6832C22.8358 11.299 22.523 10.9861 22.1388 10.9861H9.86158C9.47742 10.9861 9.16455 11.299 9.16455 11.6832V13.0376H22.8358Z" fill="#4CDBC4"/>
<path d="M17.2752 12.5069H10.5702C10.297 12.5069 10.0752 12.2852 10.0752 12.0119C10.0752 11.7386 10.297 11.5168 10.5702 11.5168H17.2752C17.5485 11.5168 17.7702 11.7386 17.7702 12.0119C17.7702 12.2852 17.5485 12.5069 17.2752 12.5069Z" fill="white"/>
<path d="M21.4181 12.5267C21.698 12.5267 21.925 12.2998 21.925 12.0198C21.925 11.7398 21.698 11.5129 21.4181 11.5129C21.1381 11.5129 20.9111 11.7398 20.9111 12.0198C20.9111 12.2998 21.1381 12.5267 21.4181 12.5267Z" fill="#2C9984"/>
<path d="M19.9605 12.5267C20.2405 12.5267 20.4675 12.2998 20.4675 12.0198C20.4675 11.7398 20.2405 11.5129 19.9605 11.5129C19.6806 11.5129 19.4536 11.7398 19.4536 12.0198C19.4536 12.2998 19.6806 12.5267 19.9605 12.5267Z" fill="#2C9984"/>
<path d="M10.606 12.1941H10.507L10.3882 11.8495H10.4872L10.5545 12.0594L10.6218 11.8495H10.7169L10.7842 12.0594L10.8515 11.8495H10.9506L10.8317 12.1941H10.7327L10.6694 12.004L10.606 12.1941Z" fill="#324A5E"/>
<path d="M11.188 12.1941H11.089L10.9702 11.8495H11.0692L11.1366 12.0594L11.2039 11.8495H11.2989L11.3663 12.0594L11.4336 11.8495H11.5326L11.4138 12.1941H11.3148L11.2514 12.004L11.188 12.1941Z" fill="#324A5E"/>
<path d="M11.7666 12.1941H11.6676L11.5488 11.8495H11.6478L11.7152 12.0594L11.7825 11.8495H11.8775L11.9449 12.0594L12.0122 11.8495H12.1112L11.9924 12.1941H11.8934L11.83 12.004L11.7666 12.1941Z" fill="#324A5E"/>
<path d="M11.1525 15.9937H10.6197L10 14H10.5328L10.8919 15.2075L11.251 14H11.749L12.1081 15.2075L12.4672 14H13L12.3745 16H11.8417L11.5058 14.9119L11.1525 15.9937Z" fill="#2E3134"/>
<path d="M14.1583 15.9937H13.6255L13 14H13.5328L13.8919 15.2075L14.251 14H14.749L15.1081 15.2075L15.4672 14H16L15.3745 16H14.8417L14.5058 14.9119L14.1583 15.9937Z" fill="#2E3134"/>
<path d="M17.1583 15.9937H16.6255L16 14H16.5328L16.8919 15.2075L17.251 14H17.749L18.1081 15.2075L18.4672 14H19L18.3745 16H17.8417L17.5058 14.9119L17.1583 15.9937Z" fill="#2E3134"/>
<path d="M20.6931 19.6475L21.4178 18.9228L20.2297 17.7307L21.3149 16.9386L17.9644 16.1941L18.7089 19.5446L19.5049 18.4554L20.6931 19.6475Z" fill="#FF7058"/>
</svg>
